<svg xmlns="http://www.w3.org/2000/svg" xmlns:xlink="http://www.w3.org/1999/xlink" viewBox="0 0 100 173.75" version="1.1" x="0px" y="0px"><title>Public toilet restroom WC bathroom </title><desc>Created with Sketch.</desc><g stroke="none" stroke-width="1" fill="none" fill-rule="evenodd"><g transform="translate(-8927.000000, -3644.000000)" fill="#F82DD7" fill-rule="nonzero"><path d="M8969,3756.4722 C8967.0427,3750.76342 8963.46044,3745.7507 8958.69332,3742.04991 L8946.97433,3732.95227 C8934.94114,3723.61072 8927.63418,3709.44259 8927,3694.2222 C8927,3666.60797 8949.38576,3644.2222 8977,3644.2222 C9004.61424,3644.2222 9027,3666.60797 9027,3694.2222 C9026.36582,3709.44259 9019.05886,3723.61072 9007.02567,3732.95227 L8995.30668,3742.04991 C8990.53956,3745.7507 8986.9573,3750.76342 8985,3756.4722 L8983.62162,3760.49248 C8982.65157,3763.32181 8979.99101,3765.2222 8977,3765.2222 C8974.00899,3765.2222 8971.34843,3763.32181 8970.37838,3760.49248 L8969,3756.4722 Z M8977,3782.2222 C8965.95431,3782.2222 8957,3780.87906 8957,3779.2222 C8957,3777.56535 8965.95431,3776.2222 8977,3776.2222 C8988.04569,3776.2222 8997,3777.56535 8997,3779.2222 C8997,3780.87906 8988.04569,3782.2222 8977,3782.2222 Z M8962.98922,3708.78725 L8969.70454,3708.78725 L8966.47295,3699.53609 L8966.45765,3694.31133 C8966.13316,3689.28067 8961.95825,3685.36637 8956.91714,3685.36637 C8951.8931,3685.36637 8947.74887,3689.30055 8947.4878,3694.31781 C8947.75102,3696.26571 8947.75102,3698.00514 8947.4878,3699.53609 C8947.19818,3701.22057 8946.36891,3704.30429 8945,3708.78725 L8951.42335,3708.78725 L8951.42335,3714.85933 L8962.98922,3714.85933 L8962.98922,3708.78725 Z M8956.91714,3684.20978 C8959.95127,3684.20978 8962.41093,3681.75013 8962.41093,3678.71599 C8962.41093,3675.68186 8959.95127,3673.2222 8956.91714,3673.2222 C8953.883,3673.2222 8951.42335,3675.68186 8951.42335,3678.71599 C8951.42335,3681.75013 8953.883,3684.20978 8956.91714,3684.20978 Z M8976.3985,3673.2222 L8976.3985,3714.85933 L8979.28997,3714.85933 L8979.28997,3673.2222 L8976.3985,3673.2222 Z M8997.03645,3684.20978 C9000.07059,3684.20978 9002.53024,3681.75013 9002.53024,3678.71599 C9002.53024,3675.68186 9000.07059,3673.2222 8997.03645,3673.2222 C8994.00232,3673.2222 8991.54266,3675.68186 8991.54266,3678.71599 C8991.54266,3681.75013 8994.00232,3684.20978 8997.03645,3684.20978 Z M9003.10853,3699.8237 L9006,3699.8237 L9006,3690.57101 C9006,3687.69656 9003.6698,3685.36637 9000.79536,3685.36637 L8993.27754,3685.36637 C8990.4031,3685.36637 8988.0729,3687.69656 8988.0729,3690.57101 L8988.0729,3699.8237 L8991.54266,3699.8237 L8991.54266,3714.85933 L9003.10853,3714.85933 L9003.10853,3699.8237 Z"/></g></g><text x="0" y="154" fill="#000000" font-size="5px" font-weight="bold" font-family="'Helvetica Neue', Helvetica, Arial-Unicode, Arial, Sans-serif">Created by Silviu Ojog</text><text x="0" y="159" fill="#000000" font-size="5px" font-weight="bold" font-family="'Helvetica Neue', Helvetica, Arial-Unicode, Arial, Sans-serif">from the Noun Project</text></svg>