<svg xmlns="http://www.w3.org/2000/svg" xmlns:xlink="http://www.w3.org/1999/xlink" version="1.1" x="0px" y="0px" viewBox="0 0 512 640" style="enable-background:new 0 0 512 512;" xml:space="preserve"><g><g><g><path style="" d="M209.168,485.502c4.459,7.421,10.387,14.835,19.352,19.294     c25.23,14.837,59.416,5.957,74.257-19.294c131.439-223.613,124.475-216.771,135.172-243.48     c4.447-17.833,7.467-35.657,7.467-53.455c0-51.962-22.309-99.49-56.445-133.615C354.775,20.787,307.234,0,255.239,0     c-52.001,0-99.55,20.787-133.685,54.952c-34.185,34.125-54.97,81.653-54.97,133.615c0,17.798,2.969,35.621,7.428,53.455     C82.047,271.538,129.944,351.393,209.168,485.502z M412.777,185.575c0,87.079-70.443,157.469-157.539,157.469     c-87.109,0-157.552-70.39-157.552-157.469c0-87.04,70.442-157.46,157.552-157.46C342.334,28.115,412.777,98.535,412.777,185.575     L412.777,185.575z" fill-rule="evenodd" clip-rule="evenodd"/></g><g><path d="M286.834,264.906h18.623v-46.477c0-1.499,1.219-2.714,2.713-2.714c1.5,0,2.713,1.215,2.713,2.714v46.477h18.625V193.42     h-42.674V264.906z"/><path d="M208.308,120.026h-28.743c-10.471,0-18.988,8.517-18.988,18.99v48.979h9.311h48.098h9.312v-48.979     C227.296,128.543,218.778,120.026,208.308,120.026z M200.021,155.44h-11.286v-10.851h11.286V155.44z M200.021,139.163h-11.286     v-10.852h11.286V139.163z"/><path d="M193.938,112.033c8.448,0,15.324-6.872,15.324-15.324c0-8.449-6.876-15.323-15.324-15.323     c-8.451,0-15.323,6.874-15.323,15.323C178.615,105.162,185.487,112.033,193.938,112.033z"/><path d="M308.17,112.033c8.451,0,15.326-6.872,15.326-15.324c0-8.449-6.875-15.323-15.326-15.323     c-8.449,0-15.32,6.874-15.32,15.323C292.85,105.162,299.721,112.033,308.17,112.033z"/><path d="M172.599,264.906h18.624v-41.405c0-1.5,1.219-2.711,2.715-2.711c1.498,0,2.711,1.212,2.711,2.711v41.405h18.625V193.42     h-42.675V264.906z"/><path d="M335.52,141.662c0-11.929-7.885-21.636-17.58-21.636h-19.541c-9.689,0-17.576,9.707-17.576,21.636     c0,0.223-0.029,0.445-0.08,0.664l-11.176,45.669h14.553h48.1h14.559l-11.174-45.669     C335.547,142.107,335.52,141.885,335.52,141.662z M314.182,155.44h-11.291v-10.851h11.291V155.44z M314.182,139.163h-11.291     v-10.852h11.291V139.163z"/><g><path d="M248.047,288.37c-1.499,0-2.713-1.215-2.713-2.713V105.288c0-1.498,1.214-2.712,2.713-2.712      c1.5,0,2.713,1.214,2.713,2.712v180.369C250.76,287.155,249.547,288.37,248.047,288.37z"/></g><g><path d="M284.119,288.37h-72.145c-1.499,0-2.712-1.215-2.712-2.713c0-1.499,1.213-2.713,2.712-2.713h72.145      c1.502,0,2.715,1.214,2.715,2.713C286.834,287.155,285.621,288.37,284.119,288.37z"/></g></g></g></g><text x="0" y="527" fill="#000000" font-size="5px" font-weight="bold" font-family="'Helvetica Neue', Helvetica, Arial-Unicode, Arial, Sans-serif">Created by Flatart</text><text x="0" y="532" fill="#000000" font-size="5px" font-weight="bold" font-family="'Helvetica Neue', Helvetica, Arial-Unicode, Arial, Sans-serif">from the Noun Project</text></svg>